<svg width="32" height="32" viewBox="0 0 32 32" fill="none" xmlns="http://www.w3.org/2000/svg">
  <!-- Background circle with gradient -->
  <defs>
    <radialGradient id="bg" cx="0.5" cy="0.3" r="0.8">
      <stop offset="0%" stop-color="#f97316"/>
      <stop offset="70%" stop-color="#dc2626"/>
      <stop offset="100%" stop-color="#7c2d12"/>
    </radialGradient>
    <linearGradient id="flame" x1="0" y1="0" x2="0" y2="1">
      <stop offset="0%" stop-color="#fbbf24"/>
      <stop offset="50%" stop-color="#f97316"/>
      <stop offset="100%" stop-color="#dc2626"/>
    </linearGradient>
    <linearGradient id="book" x1="0" y1="0" x2="1" y2="1">
      <stop offset="0%" stop-color="#3b82f6"/>
      <stop offset="100%" stop-color="#1d4ed8"/>
    </linearGradient>
  </defs>
  
  <!-- Main background -->
  <circle cx="16" cy="16" r="15" fill="url(#bg)" stroke="#451a03" stroke-width="2"/>
  
  <!-- Book base -->
  <path d="M8 12 L24 12 L24 26 L8 26 Z" fill="url(#book)" rx="1"/>
  <path d="M8 12 L24 12 L22 10 L10 10 Z" fill="#2563eb"/>
  
  <!-- Book pages -->
  <line x1="10" y1="15" x2="22" y2="15" stroke="white" stroke-width="0.5" opacity="0.8"/>
  <line x1="10" y1="17" x2="20" y2="17" stroke="white" stroke-width="0.5" opacity="0.8"/>
  <line x1="10" y1="19" x2="22" y2="19" stroke="white" stroke-width="0.5" opacity="0.8"/>
  <line x1="10" y1="21" x2="18" y2="21" stroke="white" stroke-width="0.5" opacity="0.8"/>
  
  <!-- Flame icon (representing the "inferno" and gaming aspect) -->
  <path d="M16 6 C18 8, 20 10, 18 14 C19 12, 20 13, 19 15 C18 13, 16 14, 16 16 C14 14, 12 12, 14 8 C13 10, 12 9, 13 7 C14 9, 16 8, 16 6 Z" 
        fill="url(#flame)" 
        stroke="#451a03" 
        stroke-width="0.5"/>
  
  <!-- XP/Level indicator (small gem) -->
  <polygon points="26,8 28,6 30,8 28,10" fill="#10b981" stroke="#047857" stroke-width="0.5"/>
  
  <!-- Subtle blockchain/Web3 elements (small dots representing network) -->
  <circle cx="6" cy="8" r="1" fill="#8b5cf6" opacity="0.7"/>
  <circle cx="4" cy="12" r="0.5" fill="#8b5cf6" opacity="0.5"/>
  <circle cx="8" cy="6" r="0.5" fill="#8b5cf6" opacity="0.5"/>
</svg>